<svg width="200" height="214" viewBox="0 0 200 214" fill="none" xmlns="http://www.w3.org/2000/svg">
<g filter="url(#filter0_d_1202_10410)">
<g filter="url(#filter1_bd_1202_10410)">
<rect x="191.642" y="190.611" width="183.642" height="190.611" rx="20" transform="rotate(-180 191.642 190.611)" fill="white"/>
<rect x="191.142" y="190.111" width="182.642" height="189.611" rx="19.5" transform="rotate(-180 191.142 190.111)" stroke="url(#paint0_linear_1202_10410)"/>
</g>
</g>
<path d="M155.246 140.633H104.574C103.667 140.633 102.93 139.896 102.93 138.99V65.1805C102.93 64.2744 103.667 63.5371 104.574 63.5371H155.246C156.152 63.5371 156.889 64.2742 156.889 65.1805V138.989C156.89 139.896 156.152 140.633 155.246 140.633ZM104.574 63.6072C103.706 63.6072 103 64.3131 103 65.1805V138.989C103 139.857 103.706 140.563 104.574 140.563H155.246C156.114 140.563 156.819 139.857 156.819 138.989V65.1805C156.819 64.3131 156.113 63.6072 155.246 63.6072H104.574Z" fill="#263238"/>
<path d="M96.8131 140.633H46.1405C45.2344 140.633 44.4971 139.896 44.4971 138.99V65.1805C44.4971 64.2744 45.2341 63.5371 46.1405 63.5371H96.8131C97.7192 63.5371 98.4565 64.2742 98.4565 65.1805V138.989C98.4565 139.896 97.7192 140.633 96.8131 140.633ZM46.1405 63.6072C45.2731 63.6072 44.5672 64.3131 44.5672 65.1805V138.989C44.5672 139.857 45.2731 140.563 46.1405 140.563H96.8131C97.6808 140.563 98.3864 139.857 98.3864 138.989V65.1805C98.3864 64.3131 97.6805 63.6072 96.8131 63.6072H46.1405Z" fill="#263238"/>
<path d="M42.8895 112.664H59.4221H63.8483L60.4342 115.128V119.975C60.4342 120.534 59.981 120.987 59.4221 120.987H42.8895C42.3306 120.987 41.8774 120.534 41.8774 119.975V113.676C41.8774 113.117 42.3306 112.664 42.8895 112.664Z" fill="#94BDEB"/>
<path d="M43.7583 116.089C43.7583 116.11 46.9193 116.126 50.8177 116.126C54.7174 116.126 57.8779 116.11 57.8779 116.089C57.8779 116.069 54.7174 116.053 50.8177 116.053C46.9193 116.053 43.7583 116.069 43.7583 116.089Z" fill="#999595"/>
<path d="M43.7583 117.953C43.7583 117.973 46.9193 117.989 50.8177 117.989C54.7174 117.989 57.8779 117.973 57.8779 117.953C57.8779 117.932 54.7174 117.916 50.8177 117.916C46.9193 117.916 43.7583 117.932 43.7583 117.953Z" fill="#999595"/>
<path d="M50.8113 79.3984H49.8306V82.6839H50.8113V79.3984Z" fill="#2747C2"/>
<path d="M42.6224 78.9219H41.6416V82.6833H42.6224V78.9219Z" fill="#2747C2"/>
<path d="M44.6722 78.1367H43.6914V82.6821H44.6722V78.1367Z" fill="#2747C2"/>
<path d="M46.7215 78.3867H45.7407V82.6828H46.7215V78.3867Z" fill="#2747C2"/>
<path d="M48.7723 76.9336H47.7915V82.6831H48.7723V76.9336Z" fill="#2747C2"/>
<path d="M52.8621 76.959H51.8813V82.6805H52.8621V76.959Z" fill="#2747C2"/>
<path d="M54.9119 78.8398H53.9312V82.6822H54.9119V78.8398Z" fill="#2747C2"/>
<path d="M56.9617 77.2148H55.981V82.6843H56.9617V77.2148Z" fill="#2747C2"/>
<path d="M59.012 75.9824H58.0312V82.684H59.012V75.9824Z" fill="#2747C2"/>
<path d="M61.0618 77.1855H60.0811V82.683H61.0618V77.1855Z" fill="#2747C2"/>
<path d="M134.58 80.9121L142.691 79.6728C143.371 84.1224 140.269 88.3434 135.82 89.0234C131.37 89.7032 127.149 86.6013 126.469 82.1516C125.789 77.702 128.891 73.481 133.341 72.8012C134.049 72.6929 134.769 72.6779 135.481 72.7566L134.58 80.9121Z" fill="#2747C2"/>
<path d="M137.216 72.7793L136.231 79.0668L142.403 77.9078C142.403 77.9078 141.496 74.3842 137.216 72.7793Z" fill="#AEC4EE"/>
<path d="M54.354 96.1678C54.3184 93.9401 56.0935 92.0988 58.3108 92.063C60.5281 92.0273 62.3611 93.8104 62.3967 96.038C62.4323 98.2657 60.6573 100.107 58.44 100.143C56.2226 100.179 54.3896 98.3952 54.354 96.1678ZM60.2981 96.0719C60.281 95.0068 59.4047 94.1542 58.3445 94.1712C57.2843 94.1883 56.4356 95.0687 56.4527 96.1338C56.4697 97.1988 57.3461 98.0515 58.4063 98.0344C59.4665 98.0174 60.3152 97.1369 60.2981 96.0719Z" fill="#94BDEB"/>
<path d="M54.088 95.9898C54.05 93.6635 55.9407 91.7405 58.3022 91.7031L58.3451 94.3232C57.2158 94.341 56.3618 95.176 56.38 96.2883C56.3982 97.4006 57.2747 97.9572 58.4039 97.9393L58.4398 100.141C56.0782 100.178 54.1259 98.3162 54.088 95.9898Z" fill="#407BFF"/>
<path d="M57.9536 91.737C60.5478 91.6951 62.6171 93.7084 62.6588 96.3144L60.2036 96.354C60.1837 95.1079 59.2355 94.3233 57.9952 94.3435L57.9536 91.737Z" fill="#2747C2"/>
<path d="M109.4 72.707H91.6031H86.8384L90.5136 75.3591V80.5769C90.5136 81.1786 91.0014 81.6665 91.6031 81.6665H109.4C110.001 81.6665 110.489 81.1788 110.489 80.5769V73.7966C110.489 73.1948 110.002 72.707 109.4 72.707Z" fill="#94BDEB"/>
<path d="M108.461 76.3929C108.461 76.4147 105.059 76.4324 100.862 76.4324C96.6642 76.4324 93.2622 76.4147 93.2622 76.3929C93.2622 76.3712 96.6642 76.3535 100.862 76.3535C105.059 76.3535 108.461 76.3712 108.461 76.3929Z" fill="#999595"/>
<path d="M108.461 78.3988C108.461 78.4206 105.059 78.4382 100.862 78.4382C96.6642 78.4382 93.2622 78.4206 93.2622 78.3988C93.2622 78.377 96.6642 78.3594 100.862 78.3594C105.059 78.3594 108.461 78.377 108.461 78.3988Z" fill="#999595"/>
<path d="M125.314 131.342C125.314 131.342 129.118 133.195 130.453 137.98C131.789 142.764 135.879 155.225 135.879 155.225C135.879 155.225 138.216 157.975 138.467 160.011C138.717 162.047 138.216 166.972 137.465 167.891C136.714 168.809 135.643 168.657 135.643 168.657L125.805 167.724L121.931 141.784L125.314 131.342Z" fill="#94BDEB"/>
<path d="M92.7796 130.89C92.7796 130.89 85.7453 133.096 83.9922 135.016L89.7522 161.812L89.6602 170.266H123.011C123.011 169.849 123.31 142.195 123.31 142.195L125.313 131.343L113.459 129.256L111.122 127.42L97.9329 128.088L95.9294 130.091L92.7796 130.89Z" fill="#94BDEB"/>
<g opacity="0.3">
<path d="M95.4518 154.136C95.3491 153.909 95.202 153.663 94.9578 153.613C94.556 153.53 94.2874 154.005 94.1509 154.392C93.0673 157.459 91.6343 160.28 89.7696 162.946L89.6841 167.06C91.6283 165.424 93.5453 163.672 94.7847 161.453C96.0242 159.235 96.4982 156.452 95.4518 154.136Z" fill="black"/>
</g>
<path d="M83.9928 135.016C83.9928 135.016 81.6751 138.175 80.7126 140.238C79.75 142.3 71.7751 159.625 71.2938 161.413C70.8125 163.2 69.575 168.838 73.2189 170.144H80.7126L88.2342 154.935L88.6189 137.282L83.9928 135.016Z" fill="#94BDEB"/>
<path d="M81.1923 159.157C81.1823 159.168 81.0253 159.009 80.6803 158.813C80.3358 158.618 79.8008 158.395 79.1074 158.243C78.7613 158.168 78.3764 158.108 77.961 158.082C77.5454 158.056 77.0993 158.064 76.6465 158.168C75.7374 158.371 74.8342 158.945 74.1236 159.752C73.4023 160.557 72.957 161.509 72.6953 162.407C72.4298 163.307 72.3162 164.151 72.2445 164.859C72.1745 165.568 72.1482 166.145 72.1238 166.543C72.1122 166.73 72.1025 166.881 72.095 167.002C72.087 167.107 72.0803 167.162 72.0753 167.162C72.0703 167.162 72.0673 167.106 72.0659 167.001C72.0665 166.88 72.067 166.728 72.0679 166.541C72.0753 166.142 72.0859 165.563 72.1432 164.85C72.2022 164.137 72.3057 163.285 72.568 162.37C72.8258 161.458 73.2777 160.48 74.0159 159.656C74.7428 158.83 75.6754 158.241 76.6177 158.038C77.0877 157.934 77.549 157.931 77.9691 157.963C78.3913 157.995 78.7807 158.06 79.1304 158.144C79.8304 158.31 80.3679 158.552 80.7091 158.765C80.8794 158.873 81.0026 158.969 81.0807 159.04C81.1574 159.114 81.1956 159.153 81.1923 159.157Z" fill="#263238"/>
<path d="M77.6387 156.127C77.6378 156.117 77.7273 156.103 77.8907 156.087C78.0538 156.067 78.2922 156.062 78.5857 156.077C78.8798 156.09 79.2281 156.14 79.6078 156.228C79.9855 156.323 80.3936 156.46 80.8012 156.652C81.2069 156.848 81.5699 157.079 81.8815 157.313C82.1888 157.553 82.4472 157.792 82.6421 158.012C82.8387 158.231 82.9849 158.419 83.0722 158.558C83.1619 158.696 83.2073 158.774 83.1993 158.78C83.1771 158.795 82.9739 158.495 82.5682 158.082C82.3672 157.875 82.1069 157.648 81.8017 157.419C81.4924 157.196 81.1355 156.974 80.7389 156.782C80.3405 156.595 79.9431 156.457 79.5751 156.357C79.2051 156.264 78.8654 156.204 78.5774 156.179C78.0017 156.123 77.6403 156.154 77.6387 156.127Z" fill="#263238"/>
<path d="M84.4122 155.297C84.4105 155.307 84.2868 155.297 84.0655 155.271C83.8445 155.242 83.5236 155.21 83.1268 155.181C82.334 155.121 81.2316 155.106 80.0268 155.249C78.822 155.394 77.7539 155.669 76.9974 155.914C76.6189 156.036 76.3146 156.143 76.1066 156.223C75.8978 156.301 75.7799 156.34 75.776 156.33C75.7721 156.321 75.882 156.265 76.0853 156.171C76.2874 156.075 76.5879 155.953 76.9647 155.817C77.7177 155.545 78.7929 155.253 80.0096 155.106C81.2261 154.962 82.3401 154.992 83.1359 155.079C83.5341 155.122 83.8548 155.17 84.0741 155.215C84.2937 155.259 84.4141 155.287 84.4122 155.297Z" fill="#263238"/>
<path d="M105.761 140.491C105.758 140.494 105.732 140.463 105.685 140.401C105.631 140.329 105.564 140.239 105.481 140.127C105.297 139.873 105.044 139.522 104.727 139.084C104.08 138.171 103.178 136.898 102.117 135.401L102.233 135.384C101.83 136.57 101.384 137.879 100.915 139.255L100.885 139.343L100.81 139.294C100.761 139.262 100.707 139.228 100.654 139.194C100.034 138.801 99.4871 138.328 99.0225 137.816C98.5601 137.301 98.1763 136.753 97.8575 136.205C97.2204 135.107 96.8363 134.023 96.5754 133.106C96.3163 132.185 96.1809 131.423 96.09 130.898C96.0463 130.647 96.0114 130.446 95.9851 130.294C95.9723 130.225 95.9585 130.174 95.9499 130.14C95.9369 130.108 95.9305 130.09 95.9325 130.088C95.9632 130.075 96.0443 130.365 96.1451 130.887C96.2526 131.409 96.4029 132.166 96.6732 133.077C96.9448 133.986 97.3364 135.057 97.9719 136.138C98.2898 136.677 98.6705 137.216 99.1269 137.721C99.5852 138.223 100.123 138.686 100.731 139.072C100.783 139.105 100.835 139.139 100.884 139.17L100.778 139.208C101.251 137.833 101.701 136.526 102.108 135.341L102.151 135.218L102.225 135.325C103.268 136.834 104.156 138.117 104.792 139.037C105.095 139.485 105.338 139.843 105.515 140.102C105.591 140.219 105.653 140.313 105.702 140.388C105.744 140.454 105.764 140.49 105.761 140.491Z" fill="#263238"/>
<g opacity="0.3">
<path d="M114.438 153.283C114.129 156.381 114.813 159.57 116.365 162.269C117.917 164.968 120.191 167.374 123.023 168.665C123.115 165.915 122.983 162.676 123.074 159.925L114.438 153.283Z" fill="black"/>
</g>
<path d="M114.131 149.664C114.131 149.664 112.919 150 113.828 152.482C114.736 154.964 115.039 154.814 115.645 157.136C116.25 159.458 116.957 161.576 118.017 162.889C119.077 164.201 123.014 166.876 123.014 166.876L126.547 163.545C126.547 163.545 125.965 161.062 126.105 159.376C126.245 157.69 126.598 153.551 126.547 152.844C126.497 152.138 125.74 150.422 125.74 150.422V149.248L123.923 143.658C123.923 143.658 122.913 143.203 122.56 144.819L121.954 143.104C121.954 143.104 120.995 142.951 120.743 144.919C120.491 146.888 120.945 149.614 120.945 149.614L120.44 153.046L119.683 155.368L119.027 155.469C119.027 155.469 118.039 155.199 117.498 153.34C116.957 151.481 115.494 149.261 114.131 149.664Z" fill="#FFCDA8"/>
<path d="M125.366 158.444C125.362 158.445 125.357 158.401 125.35 158.317C125.343 158.221 125.335 158.098 125.324 157.947C125.306 157.608 125.281 157.14 125.249 156.557C125.195 155.352 125.119 153.675 125.031 151.717L125.047 151.757C124.885 151.563 124.595 151.505 124.332 151.571C124.064 151.635 123.825 151.802 123.677 152.051C123.368 152.547 123.351 153.194 123.255 153.819C123.063 155.234 122.881 156.581 122.715 157.809C122.631 158.422 122.542 159.005 122.422 159.545C122.306 160.086 122.143 160.578 121.984 161.018C121.828 161.458 121.69 161.857 121.604 162.216C121.517 162.575 121.483 162.892 121.49 163.151C121.501 163.673 121.652 163.937 121.63 163.943C121.625 163.945 121.596 163.878 121.545 163.749C121.503 163.618 121.445 163.418 121.434 163.153C121.418 162.889 121.445 162.564 121.526 162.198C121.605 161.832 121.738 161.427 121.888 160.984C122.04 160.542 122.195 160.057 122.305 159.52C122.419 158.984 122.502 158.404 122.583 157.791C122.746 156.562 122.924 155.215 123.112 153.8C123.157 153.484 123.191 153.173 123.245 152.862C123.301 152.553 123.387 152.243 123.557 151.975C123.718 151.702 124.001 151.503 124.3 151.435C124.595 151.361 124.948 151.426 125.15 151.67L125.165 151.688L125.166 151.711C125.233 153.67 125.291 155.347 125.332 156.553C125.347 157.137 125.359 157.606 125.368 157.945C125.37 158.097 125.371 158.219 125.372 158.316C125.372 158.4 125.37 158.444 125.366 158.444Z" fill="#EB996E"/>
<path d="M123.433 152.084C123.425 152.087 123.368 151.976 123.284 151.768C123.201 151.559 123.091 151.252 122.988 150.863C122.885 150.474 122.79 150.003 122.735 149.473C122.708 149.208 122.689 148.925 122.72 148.63C122.75 148.337 122.837 148.027 123.024 147.764C123.184 147.537 123.411 147.355 123.67 147.279L123.724 147.264L123.752 147.312C124.264 148.215 124.708 149.012 125.021 149.585C125.164 149.854 125.285 150.08 125.383 150.263C125.465 150.423 125.507 150.513 125.499 150.517C125.491 150.521 125.435 150.44 125.339 150.288C125.231 150.11 125.098 149.892 124.94 149.632C124.606 149.071 124.146 148.283 123.629 147.383L123.711 147.416C123.488 147.482 123.287 147.641 123.142 147.848C122.972 148.085 122.891 148.368 122.86 148.645C122.828 148.924 122.843 149.199 122.867 149.46C122.913 149.984 122.998 150.451 123.087 150.839C123.176 151.227 123.271 151.536 123.337 151.75C123.404 151.962 123.443 152.08 123.433 152.084Z" fill="#EB996E"/>
<path d="M122.59 152.538C122.58 152.539 122.569 152.424 122.558 152.217C122.548 151.978 122.536 151.685 122.522 151.338C122.498 150.596 122.475 149.571 122.459 148.439C122.45 147.307 122.406 146.279 122.504 145.533C122.551 145.162 122.625 144.867 122.693 144.669C122.76 144.471 122.815 144.368 122.823 144.371C122.848 144.379 122.668 144.808 122.605 145.544C122.535 146.277 122.594 147.303 122.603 148.436C122.619 149.569 122.626 150.594 122.624 151.337C122.62 151.684 122.617 151.978 122.614 152.216C122.608 152.423 122.6 152.538 122.59 152.538Z" fill="#EB996E"/>
<path d="M119.602 161.844C119.582 161.827 119.803 161.566 120.076 161.095C120.215 160.86 120.356 160.567 120.488 160.233C120.613 159.896 120.727 159.517 120.803 159.109C120.874 158.7 120.901 158.305 120.901 157.946C120.894 157.587 120.864 157.263 120.817 156.995C120.726 156.457 120.609 156.136 120.634 156.127C120.644 156.124 120.679 156.201 120.735 156.346C120.794 156.489 120.858 156.705 120.917 156.976C120.978 157.247 121.019 157.576 121.033 157.943C121.041 158.311 121.017 158.716 120.944 159.135C120.866 159.552 120.746 159.94 120.611 160.282C120.469 160.621 120.316 160.915 120.163 161.147C120.013 161.38 119.878 161.56 119.773 161.674C119.67 161.79 119.61 161.85 119.602 161.844Z" fill="#EB996E"/>
<path d="M125.802 160.109L128.868 161.174C128.868 161.174 131.796 159.659 133.815 161.174C135.834 162.688 137.587 166.678 137.032 168.294C137.032 168.294 135.639 170.014 134.579 170.266C133.519 170.519 129.398 169.521 127.684 169.16C125.965 168.798 123.013 166.877 123.013 166.877L125.802 160.109Z" fill="#FFCDA8"/>
<path d="M126.181 164.625C126.171 164.625 126.16 164.529 126.148 164.354C126.136 164.146 126.121 163.9 126.104 163.613C126.072 162.988 126.03 162.123 126.017 161.165C126.003 160.208 126.03 159.339 126.088 158.714C126.115 158.401 126.149 158.148 126.18 157.975C126.212 157.802 126.234 157.707 126.244 157.709C126.266 157.713 126.219 158.097 126.189 158.721C126.158 159.345 126.147 160.209 126.161 161.164C126.179 162.1 126.194 162.946 126.206 163.61C126.21 163.924 126.209 164.178 126.204 164.353C126.199 164.528 126.191 164.625 126.181 164.625Z" fill="#EB996E"/>
<path d="M136.29 161.053C136.267 161.074 135.953 160.638 135.27 160.133C134.598 159.63 133.507 159.093 132.215 159.021C130.922 158.951 129.778 159.365 129.055 159.791C128.321 160.217 127.961 160.616 127.94 160.593C127.934 160.587 128.019 160.485 128.193 160.319C128.366 160.153 128.637 159.931 129.002 159.703C129.724 159.247 130.893 158.805 132.222 158.877C133.551 158.951 134.664 159.519 135.331 160.052C135.67 160.318 135.915 160.569 136.069 160.753C136.223 160.937 136.296 161.048 136.29 161.053Z" fill="#263238"/>
<path d="M135.893 158.495C135.873 158.525 135.463 158.111 134.617 157.791C133.784 157.465 132.491 157.314 131.165 157.688C130.503 157.873 129.897 158.137 129.38 158.431C128.862 158.727 128.43 159.051 128.086 159.344C127.742 159.638 127.479 159.894 127.299 160.073C127.118 160.251 127.018 160.35 127.01 160.343C127.003 160.337 127.09 160.225 127.258 160.034C127.427 159.843 127.68 159.574 128.019 159.267C128.358 158.961 128.79 158.623 129.313 158.316C129.837 158.01 130.451 157.737 131.126 157.549C132.485 157.166 133.812 157.338 134.654 157.696C135.079 157.871 135.396 158.072 135.598 158.229C135.701 158.304 135.771 158.376 135.822 158.42C135.871 158.465 135.896 158.491 135.893 158.495Z" fill="#263238"/>
<path d="M135.917 156.279C135.909 156.308 135.373 156.144 134.483 156.023C134.038 155.96 133.504 155.925 132.911 155.924C132.318 155.933 131.667 155.981 130.992 156.096C130.319 156.219 129.69 156.395 129.13 156.589C128.573 156.793 128.083 157.008 127.686 157.22C126.89 157.637 126.442 157.974 126.426 157.95C126.42 157.941 126.529 157.855 126.733 157.704C126.833 157.627 126.959 157.537 127.113 157.444C127.266 157.349 127.436 157.233 127.638 157.13C128.032 156.905 128.523 156.677 129.084 156.464C129.648 156.261 130.285 156.078 130.967 155.954C131.651 155.838 132.311 155.792 132.911 155.791C133.511 155.799 134.05 155.846 134.497 155.923C134.722 155.951 134.921 156.002 135.097 156.039C135.274 156.074 135.423 156.116 135.544 156.153C135.787 156.225 135.92 156.27 135.917 156.279Z" fill="#263238"/>
<path d="M112.425 129.164C112.425 129.164 112.567 129.429 112.637 129.979C112.713 130.526 112.702 131.344 112.521 132.358C112.43 132.865 112.307 133.422 112.125 134.016C111.934 134.611 111.646 135.219 111.32 135.857C110.659 137.131 109.828 138.52 108.866 140.001L108.753 140.174L108.753 139.967C108.752 138.988 108.75 137.961 108.748 136.894L108.856 136.945C108.032 137.611 107.164 138.311 106.27 139.033L106.292 139C105.693 140.899 105.298 143.014 105.142 145.216C104.889 148.586 105.093 151.809 105.252 154.733C105.388 157.662 105.477 160.298 105.569 162.512C105.657 164.727 105.737 166.518 105.803 167.755C105.84 168.368 105.868 168.847 105.887 169.179C105.898 169.337 105.906 169.46 105.912 169.55C105.917 169.633 105.916 169.676 105.916 169.676C105.916 169.676 105.907 169.634 105.897 169.551C105.888 169.461 105.875 169.339 105.859 169.182C105.828 168.857 105.788 168.377 105.747 167.759C105.663 166.522 105.568 164.731 105.467 162.517C105.368 160.301 105.25 157.666 105.119 154.74C104.953 151.818 104.744 148.588 104.998 145.205C105.155 142.994 105.553 140.868 106.16 138.957L106.166 138.937L106.182 138.924C107.078 138.204 107.947 137.506 108.773 136.842L108.881 136.755L108.881 136.894C108.879 137.96 108.877 138.988 108.876 139.966L108.763 139.932C110.665 136.982 112.213 134.419 112.451 132.345C112.641 131.338 112.663 130.527 112.6 129.983C112.573 129.711 112.52 129.507 112.486 129.37C112.443 129.236 112.425 129.164 112.425 129.164Z" fill="#263238"/>
<path d="M107.461 164.884L107.362 164.881C106.961 164.892 106.604 165.259 106.603 165.659C106.602 166.06 106.957 166.429 107.357 166.442C107.758 166.456 108.137 166.113 108.164 165.714C108.19 165.313 107.86 164.923 107.461 164.884Z" fill="#8D8B8B"/>
<path d="M107.462 154.21L107.363 154.207C106.962 154.219 106.605 154.585 106.604 154.985C106.603 155.386 106.958 155.755 107.358 155.769C107.759 155.782 108.138 155.44 108.165 155.04C108.191 154.64 107.861 154.25 107.462 154.21Z" fill="#8D8B8B"/>
<path d="M107.358 144.663C107.759 144.677 108.138 144.334 108.165 143.934C108.191 143.534 107.861 143.144 107.462 143.105L107.363 143.102C106.962 143.113 106.605 143.479 106.604 143.88C106.603 144.281 106.958 144.649 107.358 144.663Z" fill="#8D8B8B"/>
<path d="M95.4017 116.658C94.4309 115.583 93.4515 114.497 92.7437 113.233C92.0362 111.969 91.6139 110.494 91.8482 109.065C91.9853 108.229 92.3402 107.433 92.3967 106.588C92.4745 105.425 91.9855 104.21 92.3978 103.12C93.0422 101.416 95.3356 101.153 96.7259 99.976C97.8086 99.0594 98.3361 97.5713 99.5271 96.8007C100.568 96.1272 101.905 96.1419 103.132 96.3155C104.359 96.4892 105.594 96.7987 106.822 96.6337C107.698 96.516 108.522 96.1619 109.38 95.9495C110.238 95.7371 111.195 95.6811 111.959 96.125C112.723 96.5689 113.151 97.6533 112.65 98.3813C114.074 97.725 115.882 98.8343 116.272 100.353C116.661 101.871 115.881 103.511 114.675 104.512C113.469 105.513 111.909 105.979 110.369 106.27C106.008 107.091 101.278 106.628 97.5198 104.268" fill="#263238"/>
<path d="M110.699 131.322C110.486 129.671 110.312 128.294 110.301 128.122C110.301 128.122 115.818 126.883 115.514 121.305C115.367 118.609 114.612 113.082 113.872 108.089C113.077 102.727 108.291 98.8784 102.882 99.2403L102.344 99.2763C96.5684 100.003 93.9588 105.314 94.8449 111.068L97.9615 130.36C97.9615 130.36 99.2915 134.628 102.136 135.367L105.726 140.495L106.319 138.287L108.995 135.958C108.995 135.958 109.609 135.294 110.315 133.994C110.891 132.932 110.77 131.84 110.699 131.322Z" fill="#FFCDA8"/>
<path d="M110.319 128.036C110.319 128.036 106.816 128.558 102.915 126.457C102.915 126.457 104.9 130.353 110.428 129.479L110.319 128.036Z" fill="#EB996E"/>
<path d="M112.092 112.888C112.135 113.308 111.815 113.69 111.378 113.743C110.942 113.795 110.553 113.499 110.51 113.08C110.467 112.66 110.786 112.278 111.222 112.225C111.659 112.172 112.049 112.469 112.092 112.888Z" fill="#263238"/>
<path d="M112.899 110.913C112.807 111.023 112.175 110.617 111.318 110.677C110.462 110.724 109.863 111.207 109.763 111.108C109.714 111.065 109.802 110.871 110.062 110.653C110.318 110.437 110.765 110.213 111.299 110.18C111.832 110.147 112.294 110.313 112.565 110.497C112.843 110.682 112.945 110.863 112.899 110.913Z" fill="#263238"/>
<path d="M103.996 113.456C104.039 113.876 103.719 114.258 103.282 114.311C102.846 114.364 102.457 114.067 102.414 113.648C102.371 113.229 102.691 112.846 103.127 112.793C103.564 112.74 103.953 113.037 103.996 113.456Z" fill="#263238"/>
<path d="M104.477 111.632C104.385 111.743 103.752 111.337 102.896 111.396C102.04 111.444 101.441 111.926 101.341 111.827C101.292 111.784 101.379 111.59 101.641 111.372C101.897 111.156 102.343 110.932 102.877 110.899C103.411 110.866 103.873 111.032 104.144 111.216C104.42 111.401 104.523 111.583 104.477 111.632Z" fill="#263238"/>
<path d="M107.991 117.778C107.984 117.73 108.51 117.602 109.366 117.434C109.583 117.397 109.787 117.34 109.814 117.188C109.855 117.027 109.748 116.797 109.624 116.55C109.384 116.034 109.131 115.494 108.866 114.928C107.81 112.616 107.029 110.71 107.122 110.669C107.216 110.627 108.148 112.466 109.205 114.777C109.46 115.348 109.704 115.891 109.937 116.411C110.036 116.655 110.197 116.927 110.107 117.262C110.059 117.429 109.907 117.559 109.769 117.606C109.632 117.658 109.509 117.669 109.401 117.682C108.536 117.787 107.998 117.827 107.991 117.778Z" fill="#263238"/>
<path d="M104.465 108.26C104.396 108.499 103.533 108.445 102.537 108.634C101.536 108.802 100.745 109.151 100.598 108.951C100.532 108.855 100.659 108.626 100.971 108.379C101.281 108.132 101.785 107.884 102.383 107.776C102.982 107.67 103.541 107.728 103.917 107.853C104.296 107.977 104.494 108.147 104.465 108.26Z" fill="#263238"/>
<path d="M112.376 108.451C112.239 108.655 111.635 108.493 110.925 108.531C110.214 108.544 109.624 108.749 109.472 108.555C109.405 108.46 109.486 108.259 109.736 108.057C109.982 107.856 110.405 107.678 110.894 107.66C111.382 107.642 111.817 107.791 112.077 107.973C112.341 108.157 112.437 108.351 112.376 108.451Z" fill="#263238"/>
<path d="M95.6027 115.165C95.5049 115.13 91.6974 114.289 92.074 118.091C92.4506 121.893 96.5713 120.654 96.5669 120.544C96.5627 120.434 95.6027 115.165 95.6027 115.165Z" fill="#FFCDA8"/>
<path d="M94.9006 119.293C94.8826 119.283 94.8389 119.346 94.732 119.409C94.6279 119.47 94.4435 119.523 94.238 119.468C93.8218 119.36 93.4203 118.756 93.3339 118.073C93.2899 117.728 93.33 117.391 93.4256 117.106C93.5142 116.816 93.6748 116.604 93.8736 116.548C94.0702 116.482 94.2253 116.589 94.2823 116.691C94.3438 116.793 94.3272 116.871 94.3479 116.875C94.3596 116.884 94.4233 116.804 94.377 116.65C94.3538 116.576 94.3003 116.491 94.2039 116.426C94.1054 116.361 93.9675 116.337 93.8279 116.366C93.5369 116.415 93.2996 116.711 93.1943 117.024C93.0733 117.339 93.0202 117.719 93.0697 118.106C93.17 118.87 93.6332 119.548 94.1987 119.652C94.4731 119.695 94.6883 119.593 94.7946 119.492C94.9029 119.386 94.9145 119.299 94.9006 119.293Z" fill="#EB996E"/>
<path d="M113.625 102.895C113.364 104.408 110.294 105.795 107.749 105.721C105.403 105.652 104.244 104.488 102.539 103.661C101.46 103.137 101.46 103.137 99.9956 103.375C98.8118 103.567 98.1971 104.964 97.5325 105.963C98.7988 108.723 98.2871 111.933 97.7502 114.922C97.6909 115.253 97.6173 115.609 97.3655 115.831C96.938 116.208 96.2452 115.982 95.8246 115.597C95.1517 114.981 94.8451 114.067 94.6247 113.182C94.1221 111.165 93.9291 109.053 94.2481 106.999C94.5671 104.945 95.4169 102.95 96.8203 101.417C98.5743 99.5004 101.138 98.3958 103.732 98.2624C106.326 98.1292 108.932 98.9319 111.105 100.356C112.113 101.016 113.056 101.833 113.625 102.895Z" fill="#263238"/>
<path d="M108.576 119.695C107.93 119.394 107.284 119.092 106.638 118.791C106.527 118.739 106.407 118.686 106.286 118.702C106.148 118.721 106.038 118.823 105.95 118.93C105.501 119.475 105.387 120.296 105.735 120.911C106.083 121.525 106.902 121.849 107.554 121.579C108.241 121.295 108.575 120.497 108.629 119.756L108.576 119.695Z" fill="#EB996E"/>
<path d="M107.614 121.717C107.62 121.734 107.524 121.79 107.33 121.83C107.138 121.867 106.841 121.881 106.497 121.769C106.156 121.659 105.772 121.394 105.534 120.969C105.292 120.554 105.205 119.969 105.416 119.44C105.517 119.178 105.674 118.946 105.866 118.763C105.963 118.67 106.064 118.594 106.18 118.525C106.241 118.491 106.317 118.458 106.404 118.454C106.489 118.449 106.566 118.471 106.628 118.497C106.755 118.554 106.837 118.615 106.931 118.669C107.021 118.724 107.109 118.778 107.195 118.831C107.362 118.935 107.519 119.034 107.667 119.126C108.241 119.491 108.587 119.734 108.567 119.768C108.547 119.803 108.165 119.622 107.564 119.302C107.411 119.22 107.248 119.131 107.075 119.038C106.987 118.989 106.896 118.939 106.803 118.888C106.71 118.838 106.61 118.775 106.529 118.744C106.441 118.713 106.403 118.715 106.317 118.764C106.233 118.817 106.141 118.888 106.063 118.966C105.903 119.123 105.771 119.321 105.686 119.544C105.508 119.99 105.572 120.475 105.768 120.842C105.961 121.214 106.273 121.456 106.568 121.578C106.866 121.701 107.136 121.72 107.319 121.719C107.503 121.714 107.608 121.696 107.614 121.717Z" fill="#263238"/>
<path d="M107.004 112.974C106.981 112.976 107.007 112.62 106.852 112.011C106.7 111.414 106.302 110.537 105.405 109.858C104.96 109.527 104.4 109.245 103.755 109.132C103.114 109.024 102.391 109.045 101.703 109.307C101.357 109.428 101.023 109.61 100.716 109.84C100.406 110.065 100.124 110.345 99.8919 110.669C99.412 111.307 99.1418 112.128 99.134 112.973C99.1415 113.819 99.4118 114.64 99.8916 115.279C100.124 115.603 100.406 115.883 100.716 116.108C101.023 116.338 101.356 116.52 101.703 116.641C102.39 116.903 103.114 116.925 103.755 116.816C104.4 116.703 104.96 116.421 105.404 116.09C106.302 115.411 106.699 114.533 106.852 113.937C107.007 113.328 106.981 112.972 107.004 112.974C107.006 112.974 107.008 112.996 107.008 113.038C107.007 113.09 107.007 113.152 107.005 113.228C107.006 113.311 107.001 113.414 106.981 113.535C106.965 113.656 106.95 113.797 106.907 113.95C106.842 114.261 106.702 114.63 106.477 115.022C106.25 115.412 105.92 115.822 105.466 116.171C105.014 116.516 104.441 116.811 103.777 116.933C103.117 117.051 102.371 117.033 101.657 116.766C101.299 116.643 100.952 116.456 100.634 116.219C100.312 115.987 100.019 115.698 99.7778 115.362C99.2794 114.702 98.9972 113.85 98.9897 112.973C98.9975 112.097 99.2797 111.245 99.7781 110.585C100.02 110.25 100.312 109.961 100.634 109.729C100.952 109.492 101.299 109.305 101.657 109.182C102.371 108.914 103.117 108.897 103.777 109.015C104.441 109.136 105.014 109.431 105.466 109.777C105.92 110.126 106.25 110.535 106.477 110.925C106.702 111.317 106.842 111.686 106.907 111.997C106.95 112.15 106.965 112.291 106.981 112.412C107.002 112.533 107.006 112.636 107.006 112.719C107.007 112.795 107.007 112.858 107.008 112.909C107.008 112.952 107.006 112.974 107.004 112.974Z" fill="#263238"/>
<path d="M116.484 112.602C116.461 112.604 116.486 112.257 116.335 111.665C116.186 111.083 115.799 110.229 114.925 109.568C114.492 109.245 113.946 108.971 113.318 108.861C112.693 108.755 111.989 108.775 111.319 109.031C110.982 109.148 110.657 109.326 110.358 109.55C110.056 109.769 109.782 110.042 109.556 110.357C109.088 110.979 108.825 111.778 108.817 112.602C108.825 113.425 109.088 114.225 109.555 114.847C109.781 115.163 110.056 115.435 110.358 115.655C110.657 115.879 110.982 116.056 111.319 116.174C111.989 116.429 112.694 116.45 113.318 116.344C113.947 116.234 114.492 115.96 114.925 115.637C115.799 114.976 116.187 114.121 116.336 113.54C116.486 112.947 116.461 112.601 116.484 112.602C116.489 112.602 116.489 112.687 116.486 112.85C116.486 112.931 116.482 113.032 116.462 113.15C116.447 113.268 116.432 113.405 116.39 113.554C116.255 114.147 115.876 115.029 114.986 115.719C114.546 116.056 113.987 116.343 113.34 116.462C112.697 116.577 111.969 116.56 111.274 116.299C110.924 116.179 110.586 115.997 110.276 115.766C109.962 115.54 109.676 115.258 109.441 114.931C108.955 114.287 108.68 113.457 108.673 112.602C108.68 111.748 108.955 110.917 109.441 110.274C109.677 109.947 109.962 109.666 110.276 109.439C110.586 109.209 110.924 109.026 111.273 108.906C111.968 108.645 112.696 108.629 113.339 108.743C113.986 108.862 114.546 109.15 114.986 109.486C115.875 110.176 116.255 111.057 116.389 111.651C116.431 111.801 116.446 111.937 116.461 112.056C116.481 112.173 116.485 112.274 116.485 112.355C116.489 112.517 116.489 112.602 116.484 112.602Z" fill="#263238"/>
<path d="M108.746 111.725C108.73 111.741 108.639 111.664 108.47 111.584C108.303 111.504 108.053 111.426 107.773 111.431C107.492 111.435 107.245 111.522 107.081 111.609C106.916 111.695 106.828 111.776 106.812 111.761C106.798 111.75 106.863 111.639 107.028 111.522C107.19 111.405 107.458 111.291 107.77 111.287C108.081 111.282 108.353 111.386 108.519 111.496C108.689 111.606 108.759 111.713 108.746 111.725Z" fill="#263238"/>
<path d="M99.2979 112.411C99.3218 112.443 98.5447 113.064 97.5626 113.797C96.5801 114.53 95.7646 115.099 95.7408 115.067C95.717 115.035 96.4937 114.415 97.4762 113.681C98.4586 112.948 99.2741 112.38 99.2979 112.411Z" fill="#263238"/>
<g opacity="0.3">
<path d="M96.0216 130.434C95.6364 134.192 97.0652 138.158 100.079 140.436C100.316 140.614 100.613 140.792 100.892 140.691C101.085 140.621 101.209 140.435 101.312 140.257C102.171 138.769 102.459 137.128 102.21 135.428C101.733 136.685 101.324 137.919 100.842 139.233C98.2155 137.639 96.5787 134.248 96.0216 130.434Z" fill="black"/>
</g>
<path opacity="0.3" d="M106.229 138.979L108.441 138.171L108.807 141.912C108.807 141.912 111.194 137.562 112.182 135.577C113.169 133.592 112.661 130.09 112.661 130.09C112.661 130.09 113.015 133.141 110.623 137.032L108.818 139.966V136.893L106.229 138.979Z" fill="black"/>
<g opacity="0.3">
<path d="M80.4958 157.99C79.5094 157.525 78.3747 157.462 77.2911 157.588C76.1467 157.721 74.998 158.072 74.1014 158.795C73.2048 159.519 72.5967 160.659 72.7086 161.806L72.8193 161.821C73.5908 159.733 75.126 158.213 77.1056 158.029C79.0849 157.845 81.0164 158.726 82.3752 160.177C82.2431 159.094 81.4821 158.456 80.4958 157.99Z" fill="black"/>
</g>
<g opacity="0.3">
<path d="M136.429 160.126C135.688 159.326 134.647 158.842 133.573 158.654C131.687 158.325 129.662 158.911 128.243 160.197L128.665 159.855C129.737 159.228 130.973 158.855 132.214 158.891C133.456 158.926 134.698 159.385 135.598 160.242C136.424 161.03 136.921 162.094 137.395 163.133C137.58 162.058 137.17 160.926 136.429 160.126Z" fill="black"/>
</g>
<path d="M122.174 142.754C122.165 142.75 122.201 142.642 122.273 142.451C122.359 142.232 122.464 141.964 122.588 141.646C122.856 140.968 123.223 140.03 123.611 138.987C123.999 137.944 124.334 136.994 124.575 136.306C124.688 135.984 124.784 135.712 124.863 135.491C124.933 135.299 124.976 135.194 124.985 135.197C124.995 135.2 124.97 135.311 124.916 135.508C124.863 135.705 124.78 135.989 124.671 136.338C124.455 137.035 124.135 137.993 123.747 139.038C123.358 140.082 122.975 141.016 122.682 141.686C122.536 142.02 122.414 142.29 122.325 142.474C122.237 142.658 122.183 142.757 122.174 142.754Z" fill="#263238"/>
<path d="M87.2637 143.026C87.2247 143.034 86.9237 141.717 86.5917 140.083C86.2594 138.45 86.0218 137.119 86.0608 137.111C86.0999 137.103 86.4009 138.421 86.7329 140.055C87.0652 141.688 87.3028 143.019 87.2637 143.026Z" fill="#263238"/>
<path d="M86.7426 159.496C86.8301 159.541 85.728 150.867 85.728 150.867C85.728 150.867 86.4236 144.285 86.8146 143.981L86.8246 141.659C86.8246 141.659 87.9009 141.007 88.19 142.059C88.19 142.059 89.1445 141.231 89.3112 143.204C89.4779 145.176 89.5131 147.193 89.5131 147.193L91.6375 152.505L91.9873 152.682C91.9873 152.682 92.4436 148.52 92.7092 147.908C92.9747 147.295 93.1566 145.806 94.1638 146.029C95.1709 146.253 95.2548 147.086 95.0737 148.444C94.8926 149.802 94.6672 151.203 94.7511 152.08C94.835 152.957 95.2335 154.887 95.1111 156.421C94.9887 157.954 94.1491 159.572 93.2674 160.708C92.386 161.843 90.7021 164.192 89.7869 164.9C89.4674 165.147 86.7426 159.496 86.7426 159.496Z" fill="#FFCDA8"/>
<path d="M87.8182 152.439C87.8082 152.438 87.8107 152.306 87.824 152.067C87.8423 151.801 87.8655 151.463 87.8932 151.06C87.958 150.21 88.0574 149.036 88.1762 147.741C88.2374 147.095 88.2958 146.479 88.3493 145.915C88.377 145.636 88.3944 145.372 88.359 145.132C88.3255 144.892 88.2313 144.684 88.0942 144.533C87.8137 144.229 87.4529 144.152 87.227 144.153C86.9927 144.151 86.87 144.215 86.8653 144.199C86.8634 144.194 86.8927 144.179 86.9514 144.153C87.0113 144.132 87.1026 144.103 87.225 144.096C87.4623 144.079 87.8506 144.14 88.1687 144.464C88.3255 144.624 88.4368 144.857 88.4769 145.113C88.5204 145.37 88.5055 145.646 88.4816 145.927C88.4318 146.491 88.3773 147.107 88.3199 147.754C88.2011 149.049 88.0857 150.221 87.9951 151.069C87.9491 151.471 87.9107 151.807 87.8802 152.072C87.8497 152.309 87.8281 152.44 87.8182 152.439Z" fill="#EB996E"/>
<path d="M88.9594 148.889C88.9802 148.907 88.7434 149.115 88.5834 149.574C88.4123 150.026 88.3505 150.705 88.2303 151.446C88.116 152.188 88.0044 152.857 87.9166 153.342C87.8288 153.825 87.7646 154.123 87.7449 154.12C87.7253 154.117 87.7538 153.814 87.8158 153.326C87.8778 152.838 87.9734 152.166 88.0877 151.424C88.2079 150.687 88.2852 150.002 88.4884 149.537C88.5845 149.305 88.7019 149.135 88.7955 149.031C88.8883 148.926 88.9547 148.884 88.9594 148.889Z" fill="#EB996E"/>
<path d="M88.1774 141.945C88.1871 141.944 88.2131 142.041 88.2514 142.218C88.2901 142.395 88.3383 142.653 88.3912 142.973C88.497 143.613 88.613 144.503 88.6864 145.49C88.7589 146.478 88.775 147.375 88.7642 148.024C88.7589 148.348 88.7495 148.61 88.7371 148.791C88.7251 148.972 88.7141 149.072 88.7041 149.072C88.6828 149.072 88.6781 148.671 88.6623 148.024C88.6468 147.378 88.6147 146.485 88.5424 145.501C88.4693 144.518 88.3702 143.63 88.2901 142.988C88.2104 142.346 88.1564 141.949 88.1774 141.945Z" fill="#EB996E"/>
<path d="M94.3066 150.077C94.3276 150.11 93.9961 150.264 93.591 150.137C93.1845 150.016 92.9954 149.703 93.0311 149.688C93.063 149.66 93.2759 149.895 93.6331 150C93.9878 150.113 94.2955 150.036 94.3066 150.077Z" fill="#EB996E"/>
<path d="M86.8627 158.418L81.25 160.777H77.9064C77.9064 160.777 74.5987 161.809 74.09 164.909C73.581 168.01 73.5085 169.605 74.9623 169.989C76.416 170.372 80.5234 170.415 82.5587 169.739C84.594 169.064 89.9258 164.762 89.9258 164.762L90.4398 161.649L86.8627 158.418Z" fill="#FFCDA8"/>
<path d="M88.1773 161.847C88.1701 161.853 88.1139 161.801 88.0178 161.7C87.9181 161.602 87.7955 161.442 87.6534 161.236C87.376 160.822 87.0722 160.194 86.8695 159.461C86.6596 158.73 86.5702 158.047 86.5236 157.554C86.481 157.06 86.4835 156.753 86.5018 156.752C86.5231 156.751 86.5566 157.054 86.6247 157.542C86.6967 158.029 86.8014 158.702 87.0079 159.422C87.2076 160.143 87.4892 160.762 87.7393 161.182C87.9918 161.601 88.1973 161.829 88.1773 161.847Z" fill="#EB996E"/>
<path d="M90.6154 162.829C90.5852 162.818 90.838 162.392 90.9352 161.626C90.9817 161.246 90.9776 160.784 90.869 160.29C90.7616 159.795 90.5248 159.285 90.1814 158.809C89.8403 158.331 89.457 157.916 89.1339 157.513C88.8074 157.113 88.5463 156.721 88.3752 156.366C88.2029 156.011 88.1235 155.698 88.0938 155.481C88.0656 155.262 88.0769 155.141 88.0841 155.141C88.1124 155.135 88.1027 155.636 88.466 156.32C88.6443 156.66 88.9077 157.038 89.2364 157.429C89.562 157.823 89.9497 158.237 90.2986 158.726C90.65 159.212 90.8953 159.748 90.9986 160.262C91.1038 160.774 91.0969 161.251 91.036 161.64C90.9751 162.03 90.8679 162.332 90.7787 162.532C90.7358 162.633 90.6945 162.707 90.6655 162.757C90.637 162.807 90.6198 162.832 90.6154 162.829Z" fill="#EB996E"/>
<path d="M81.963 149.315C81.9275 149.333 81.3153 148.219 80.5953 146.826C79.8751 145.434 79.3202 144.29 79.3556 144.272C79.3911 144.253 80.0033 145.367 80.7233 146.76C81.4435 148.153 81.9984 149.296 81.963 149.315Z" fill="#8D8B8B"/>
<path d="M91.042 139.212C91.0057 139.196 91.3842 138.267 91.8874 137.137C92.3908 136.008 92.828 135.105 92.8646 135.121C92.9008 135.138 92.5226 136.066 92.0192 137.196C91.516 138.326 91.0785 139.228 91.042 139.212Z" fill="#8D8B8B"/>
<path d="M99.9269 145.768C99.8961 145.793 99.3265 145.156 98.655 144.344C97.983 143.533 97.4635 142.854 97.4939 142.829C97.5247 142.803 98.094 143.441 98.7661 144.252C99.4378 145.064 99.9576 145.742 99.9269 145.768Z" fill="#8D8B8B"/>
<path d="M97.8845 154.785C97.8524 154.762 98.2816 154.115 98.8429 153.341C99.4047 152.567 99.886 151.958 99.9184 151.981C99.9505 152.004 99.5216 152.651 98.9597 153.426C98.3982 154.2 97.9169 154.809 97.8845 154.785Z" fill="#8D8B8B"/>
<path d="M95.1313 167.526C95.1139 167.535 94.9879 167.323 94.8062 166.97C94.6243 166.616 94.3886 166.12 94.1513 165.563C93.9143 165.004 93.7207 164.49 93.5928 164.114C93.4646 163.738 93.3998 163.501 93.4181 163.494C93.4372 163.487 93.536 163.713 93.6883 164.078C93.8622 164.495 94.0627 164.975 94.2843 165.506C94.5124 166.034 94.7193 166.512 94.8984 166.926C95.056 167.29 95.1496 167.517 95.1313 167.526Z" fill="#8D8B8B"/>
<path d="M102.954 162.112C102.947 162.151 102.194 162.039 101.273 161.86C100.352 161.682 99.6117 161.506 99.6192 161.467C99.6267 161.428 100.379 161.54 101.301 161.719C102.221 161.897 102.962 162.073 102.954 162.112Z" fill="#8D8B8B"/>
<path d="M109.018 150.207C108.989 150.18 109.707 149.358 110.621 148.372C111.536 147.386 112.301 146.608 112.33 146.635C112.359 146.663 111.641 147.484 110.727 148.47C109.812 149.457 109.047 150.234 109.018 150.207Z" fill="#8D8B8B"/>
<path d="M115.117 166.083C115.086 166.108 114.191 165.072 113.117 163.768C112.043 162.464 111.198 161.387 111.228 161.362C111.259 161.337 112.154 162.372 113.228 163.676C114.302 164.98 115.148 166.057 115.117 166.083Z" fill="#8D8B8B"/>
<path d="M77.2413 159.316C77.2618 159.356 76.4435 159.771 75.5522 160.455C74.6564 161.134 74.0403 161.814 74.0073 161.783C73.9935 161.771 74.1303 161.586 74.3839 161.313C74.6373 161.041 75.0125 160.686 75.4647 160.34C75.9171 159.996 76.3585 159.728 76.6881 159.555C77.0181 159.383 77.2333 159.3 77.2413 159.316Z" fill="#8D8B8B"/>
<path d="M79.5223 153.198C79.5555 153.22 79.2642 153.716 78.8719 154.306C78.4795 154.896 78.1344 155.357 78.1012 155.335C78.068 155.313 78.3593 154.817 78.7517 154.226C79.1441 153.636 79.4891 153.176 79.5223 153.198Z" fill="#8D8B8B"/>
<path d="M84.6641 159.209C84.6325 159.227 84.344 158.743 84.1933 158.071C84.0388 157.4 84.0895 156.838 84.126 156.842C84.169 156.842 84.1834 157.388 84.3337 158.039C84.4794 158.691 84.7028 159.19 84.6641 159.209Z" fill="#8D8B8B"/>
<path d="M85.4287 140.121C85.4343 140.161 84.9566 140.261 84.3621 140.346C83.7673 140.43 83.2805 140.467 83.275 140.428C83.2694 140.388 83.7468 140.288 84.3419 140.203C84.9364 140.119 85.4232 140.082 85.4287 140.121Z" fill="#8D8B8B"/>
<path d="M89.2868 133.275C89.3062 133.31 88.8881 133.579 88.3531 133.875C87.8178 134.172 87.3687 134.384 87.3493 134.349C87.3299 134.314 87.748 134.046 88.2833 133.749C88.818 133.452 89.2674 133.24 89.2868 133.275Z" fill="#8D8B8B"/>
<path d="M100.147 136.167C100.115 136.191 99.6366 135.616 99.0786 134.883C98.5204 134.15 98.0934 133.537 98.1252 133.512C98.1568 133.488 98.635 134.063 99.1935 134.796C99.7515 135.529 100.178 136.143 100.147 136.167Z" fill="#8D8B8B"/>
<path d="M113.926 143.052C113.899 143.078 113.396 142.559 112.929 141.805C112.459 141.053 112.216 140.373 112.251 140.36C112.29 140.343 112.588 140.989 113.051 141.729C113.511 142.472 113.958 143.025 113.926 143.052Z" fill="#8D8B8B"/>
<path d="M119.186 144.787C119.222 144.804 118.967 145.445 118.615 146.22C118.264 146.995 117.949 147.609 117.913 147.593C117.877 147.576 118.132 146.935 118.484 146.16C118.835 145.386 119.15 144.771 119.186 144.787Z" fill="#8D8B8B"/>
<path d="M119.92 137.605C119.889 137.63 119.263 136.928 118.521 136.037C117.779 135.145 117.202 134.401 117.233 134.376C117.263 134.35 117.889 135.052 118.632 135.944C119.374 136.836 119.95 137.579 119.92 137.605Z" fill="#8D8B8B"/>
<path d="M111.888 131.774C111.848 131.775 111.792 131.174 111.763 130.432C111.734 129.689 111.742 129.086 111.782 129.084C111.822 129.082 111.878 129.683 111.907 130.426C111.936 131.169 111.928 131.772 111.888 131.774Z" fill="#8D8B8B"/>
<path d="M118.442 131.409C118.447 131.449 117.681 131.584 116.732 131.711C115.782 131.838 115.008 131.909 115.003 131.869C114.998 131.829 115.763 131.695 116.713 131.568C117.662 131.441 118.436 131.37 118.442 131.409Z" fill="#8D8B8B"/>
<path d="M128.755 138.991C128.72 139.008 128.259 138.13 127.727 137.03C127.194 135.93 126.792 135.024 126.827 135.006C126.863 134.989 127.324 135.866 127.856 136.967C128.388 138.068 128.791 138.974 128.755 138.991Z" fill="#8D8B8B"/>
<path d="M127.021 145.538C126.982 145.53 127.09 144.825 127.262 143.962C127.435 143.099 127.606 142.406 127.645 142.414C127.684 142.422 127.576 143.127 127.404 143.99C127.232 144.853 127.06 145.546 127.021 145.538Z" fill="#8D8B8B"/>
<path d="M131.806 150.7C131.768 150.713 131.4 149.76 130.985 148.572C130.569 147.384 130.262 146.41 130.3 146.397C130.337 146.383 130.705 147.336 131.121 148.524C131.536 149.713 131.843 150.686 131.806 150.7Z" fill="#8D8B8B"/>
<path d="M131.141 153.719C131.134 153.754 130.47 153.616 129.742 153.219C129.011 152.826 128.533 152.345 128.559 152.32C128.587 152.287 129.097 152.709 129.811 153.092C130.521 153.48 131.153 153.677 131.141 153.719Z" fill="#8D8B8B"/>
<path d="M137.266 160.607C137.23 160.623 137.008 160.202 136.77 159.668C136.532 159.133 136.369 158.687 136.405 158.67C136.441 158.654 136.664 159.074 136.901 159.609C137.139 160.144 137.303 160.59 137.266 160.607Z" fill="#8D8B8B"/>
<path d="M101.061 170.209C101.022 170.214 100.925 169.665 100.846 168.983C100.767 168.301 100.735 167.745 100.774 167.74C100.814 167.736 100.91 168.284 100.989 168.966C101.069 169.648 101.101 170.204 101.061 170.209Z" fill="#8D8B8B"/>
<path d="M119.873 169.733C119.834 169.725 119.915 169.188 120.054 168.534C120.193 167.88 120.337 167.357 120.376 167.365C120.416 167.374 120.334 167.91 120.195 168.564C120.056 169.218 119.912 169.742 119.873 169.733Z" fill="#8D8B8B"/>
<path d="M127.687 120.065L130.119 115.779C129.043 114.032 128.421 111.976 128.421 109.774C128.421 103.442 133.555 98.3086 139.887 98.3086C146.219 98.3086 151.352 103.442 151.352 109.774C151.352 116.106 146.219 121.24 139.887 121.24C137.243 121.24 134.81 120.342 132.87 118.839L132.874 118.844L127.687 120.065Z" fill="#FAFAFA"/>
<path d="M127.686 120.064C127.932 120.008 129.574 119.633 132.881 118.877L132.934 118.865L132.901 118.821L132.897 118.816L132.847 118.865C133.501 119.372 134.285 119.871 135.206 120.287C136.128 120.696 137.184 121.03 138.35 121.185C138.933 121.26 139.541 121.308 140.166 121.277C140.479 121.259 140.797 121.252 141.118 121.225C141.436 121.177 141.759 121.128 142.087 121.079C143.385 120.822 144.713 120.329 145.952 119.561C147.189 118.795 148.335 117.755 149.254 116.478C150.171 115.202 150.867 113.69 151.193 112.046C151.515 110.405 151.488 108.647 151.057 106.944C150.623 105.248 149.812 103.59 148.599 102.227L148.13 101.712C147.976 101.538 147.793 101.395 147.626 101.236C147.451 101.086 147.293 100.916 147.106 100.783L146.555 100.371C146.377 100.227 146.181 100.111 145.985 99.9946C145.791 99.8766 145.597 99.7586 145.403 99.6412C145.2 99.5424 144.997 99.4438 144.794 99.3455C144.59 99.2513 144.393 99.1397 144.179 99.0722C142.513 98.4109 140.736 98.1589 139.038 98.2822C137.339 98.4045 135.713 98.8919 134.319 99.6769C132.92 100.456 131.74 101.495 130.83 102.657C129.916 103.819 129.273 105.1 128.875 106.376C128.479 107.658 128.372 108.93 128.376 110.107C128.41 111.287 128.625 112.373 128.938 113.327C129.251 114.283 129.663 115.104 130.088 115.796L130.087 115.761C128.553 118.509 127.803 119.853 127.686 120.064C127.806 119.855 128.575 118.522 130.147 115.794L130.157 115.777L130.147 115.76C129.729 115.07 129.325 114.251 129.018 113.301C128.712 112.353 128.504 111.274 128.475 110.104C128.475 108.936 128.585 107.677 128.981 106.409C129.379 105.146 130.019 103.879 130.926 102.732C131.829 101.584 132.998 100.558 134.382 99.7905C135.762 99.0165 137.369 98.5372 139.048 98.4178C140.727 98.2979 142.482 98.548 144.127 99.202C144.339 99.2688 144.533 99.3793 144.735 99.4723C144.934 99.5695 145.135 99.667 145.336 99.7647C145.527 99.8807 145.719 99.9973 145.911 100.114C146.104 100.229 146.298 100.344 146.474 100.486L147.018 100.893C147.203 101.024 147.359 101.192 147.531 101.341C147.696 101.498 147.877 101.639 148.029 101.81L148.492 102.319C149.691 103.666 150.492 105.303 150.921 106.978C151.348 108.659 151.376 110.397 151.059 112.019C150.739 113.643 150.053 115.139 149.148 116.401C148.242 117.666 147.11 118.696 145.888 119.457C144.664 120.22 143.351 120.711 142.066 120.969C141.742 121.019 141.422 121.068 141.106 121.117C140.789 121.144 140.474 121.153 140.164 121.171C139.545 121.204 138.942 121.158 138.364 121.086C137.207 120.937 136.158 120.61 135.241 120.209C134.325 119.8 133.544 119.309 132.89 118.809L132.677 118.646L132.841 118.858L132.845 118.863L132.865 118.808C129.568 119.608 127.931 120.005 127.686 120.064Z" fill="#263238"/>
<path d="M142.995 109.29C142.995 109.909 143.497 110.411 144.115 110.411C144.734 110.411 145.236 109.909 145.236 109.29C145.236 108.671 144.735 108.17 144.115 108.17C143.497 108.17 142.995 108.671 142.995 109.29Z" fill="#263238"/>
<path d="M138.5 109.29C138.5 109.909 139.001 110.411 139.62 110.411C140.239 110.411 140.741 109.909 140.741 109.29C140.741 108.671 140.239 108.17 139.62 108.17C139.001 108.17 138.5 108.671 138.5 109.29Z" fill="#263238"/>
<path d="M134.046 108.73C133.736 109.266 133.92 109.952 134.456 110.261C134.992 110.57 135.677 110.387 135.987 109.851C136.296 109.315 136.112 108.63 135.576 108.321C135.04 108.011 134.355 108.194 134.046 108.73Z" fill="#263238"/>
<path d="M57.1837 36.555C55.7837 36.555 54.5837 36.2617 53.5837 35.675C52.5837 35.0883 51.8104 34.255 51.2637 33.175C50.7304 32.0817 50.4637 30.795 50.4637 29.315C50.4637 28.2083 50.617 27.215 50.9237 26.335C51.2304 25.4417 51.6704 24.6817 52.2437 24.055C52.817 23.415 53.517 22.9283 54.3437 22.595C55.1837 22.2617 56.1304 22.095 57.1837 22.095C57.9837 22.095 58.7504 22.2083 59.4837 22.435C60.2304 22.6617 60.8704 22.9817 61.4037 23.395C61.617 23.5417 61.757 23.7083 61.8237 23.895C61.8904 24.0817 61.897 24.2617 61.8437 24.435C61.8037 24.595 61.717 24.735 61.5837 24.855C61.4637 24.9617 61.3104 25.0217 61.1237 25.035C60.937 25.035 60.737 24.9617 60.5237 24.815C60.057 24.455 59.5437 24.195 58.9837 24.035C58.437 23.8617 57.8504 23.775 57.2237 23.775C56.197 23.775 55.3237 23.995 54.6037 24.435C53.897 24.8617 53.357 25.4883 52.9837 26.315C52.6237 27.1283 52.4437 28.1283 52.4437 29.315C52.4437 30.4883 52.6237 31.495 52.9837 32.335C53.357 33.1617 53.897 33.795 54.6037 34.235C55.3237 34.6617 56.197 34.875 57.2237 34.875C57.8504 34.875 58.4437 34.7883 59.0037 34.615C59.577 34.4417 60.1037 34.175 60.5837 33.815C60.797 33.6683 60.9904 33.6017 61.1637 33.615C61.3504 33.6283 61.5037 33.6883 61.6237 33.795C61.7437 33.8883 61.8237 34.0217 61.8637 34.195C61.917 34.355 61.917 34.5217 61.8637 34.695C61.8104 34.8683 61.6904 35.0217 61.5037 35.155C60.957 35.6217 60.3037 35.975 59.5437 36.215C58.797 36.4417 58.0104 36.555 57.1837 36.555ZM67.6767 36.555C66.7167 36.555 65.8833 36.3483 65.1767 35.935C64.47 35.5217 63.9233 34.935 63.5367 34.175C63.15 33.415 62.9567 32.5217 62.9567 31.495C62.9567 30.7217 63.0633 30.0283 63.2767 29.415C63.5033 28.7883 63.8233 28.255 64.2367 27.815C64.65 27.375 65.1433 27.0417 65.7167 26.815C66.3033 26.575 66.9567 26.455 67.6767 26.455C68.6367 26.455 69.47 26.6617 70.1767 27.075C70.8833 27.4883 71.43 28.075 71.8167 28.835C72.2033 29.5817 72.3967 30.4683 72.3967 31.495C72.3967 32.2683 72.2833 32.9683 72.0567 33.595C71.8433 34.2217 71.53 34.755 71.1167 35.195C70.7033 35.635 70.2033 35.975 69.6167 36.215C69.0433 36.4417 68.3967 36.555 67.6767 36.555ZM67.6767 35.115C68.2633 35.115 68.77 34.975 69.1967 34.695C69.6367 34.415 69.97 34.0083 70.1967 33.475C70.4367 32.9417 70.5567 32.2817 70.5567 31.495C70.5567 30.3217 70.2967 29.4283 69.7767 28.815C69.2567 28.2017 68.5567 27.895 67.6767 27.895C67.1033 27.895 66.5967 28.035 66.1567 28.315C65.73 28.5817 65.3967 28.9817 65.1567 29.515C64.9167 30.0483 64.7967 30.7083 64.7967 31.495C64.7967 32.6683 65.0567 33.5683 65.5767 34.195C66.11 34.8083 66.81 35.115 67.6767 35.115ZM78.2081 36.555C77.4214 36.555 76.7614 36.4083 76.2281 36.115C75.7081 35.8217 75.3214 35.3883 75.0681 34.815C74.8147 34.2417 74.6881 33.5217 74.6881 32.655V27.415C74.6881 27.1083 74.7614 26.8817 74.9081 26.735C75.0681 26.575 75.2947 26.495 75.5881 26.495C75.8814 26.495 76.1081 26.575 76.2681 26.735C76.4281 26.8817 76.5081 27.1083 76.5081 27.415V32.655C76.5081 33.4817 76.6747 34.095 77.0081 34.495C77.3414 34.8817 77.8681 35.075 78.5881 35.075C79.3881 35.075 80.0347 34.8083 80.5281 34.275C81.0347 33.7417 81.2881 33.035 81.2881 32.155V27.415C81.2881 27.1083 81.3614 26.8817 81.5081 26.735C81.6681 26.575 81.8947 26.495 82.1881 26.495C82.4814 26.495 82.7081 26.575 82.8681 26.735C83.0281 26.8817 83.1081 27.1083 83.1081 27.415V35.575C83.1081 36.2017 82.8147 36.515 82.2281 36.515C81.9347 36.515 81.7081 36.435 81.5481 36.275C81.4014 36.115 81.3281 35.8817 81.3281 35.575V33.835L81.5881 34.175C81.3214 34.9483 80.8881 35.5417 80.2881 35.955C79.7014 36.355 79.0081 36.555 78.2081 36.555ZM86.9367 36.515C86.6567 36.515 86.4367 36.435 86.2767 36.275C86.1167 36.115 86.0367 35.8817 86.0367 35.575V27.415C86.0367 27.1083 86.1167 26.8817 86.2767 26.735C86.4367 26.575 86.6567 26.495 86.9367 26.495C87.2167 26.495 87.43 26.575 87.5767 26.735C87.7367 26.8817 87.8167 27.1083 87.8167 27.415V29.055L87.5967 28.755C87.8767 27.995 88.33 27.4217 88.9567 27.035C89.5967 26.6483 90.3233 26.455 91.1367 26.455C91.9233 26.455 92.57 26.595 93.0767 26.875C93.5833 27.155 93.9633 27.5817 94.2167 28.155C94.47 28.7283 94.5967 29.455 94.5967 30.335V35.575C94.5967 35.8817 94.5167 36.115 94.3567 36.275C94.21 36.435 93.99 36.515 93.6967 36.515C93.4033 36.515 93.1767 36.435 93.0167 36.275C92.8567 36.115 92.7767 35.8817 92.7767 35.575V30.435C92.7767 29.5683 92.61 28.935 92.2767 28.535C91.9433 28.135 91.41 27.935 90.6767 27.935C89.8233 27.935 89.1367 28.2017 88.6167 28.735C88.11 29.255 87.8567 29.9617 87.8567 30.855V35.575C87.8567 36.2017 87.55 36.515 86.9367 36.515ZM100.842 36.555C100.242 36.555 99.6353 36.4883 99.022 36.355C98.422 36.2083 97.8553 35.9617 97.322 35.615C97.1753 35.5217 97.0686 35.4083 97.002 35.275C96.9486 35.1283 96.9286 34.9883 96.942 34.855C96.9686 34.7083 97.0286 34.5817 97.122 34.475C97.2153 34.3683 97.3286 34.3083 97.462 34.295C97.6086 34.2683 97.762 34.3017 97.922 34.395C98.442 34.6883 98.942 34.895 99.422 35.015C99.9153 35.135 100.402 35.195 100.882 35.195C101.615 35.195 102.169 35.0617 102.542 34.795C102.915 34.5283 103.102 34.175 103.102 33.735C103.102 33.3617 102.975 33.075 102.722 32.875C102.482 32.6617 102.102 32.5017 101.582 32.395L99.722 32.015C98.8953 31.8283 98.2686 31.5217 97.842 31.095C97.4286 30.655 97.222 30.095 97.222 29.415C97.222 28.815 97.382 28.295 97.702 27.855C98.0353 27.4017 98.4953 27.055 99.082 26.815C99.6686 26.575 100.342 26.455 101.102 26.455C101.689 26.455 102.242 26.535 102.762 26.695C103.295 26.8417 103.775 27.0683 104.202 27.375C104.362 27.4683 104.462 27.5883 104.502 27.735C104.555 27.8683 104.562 28.0083 104.522 28.155C104.495 28.2883 104.435 28.4017 104.342 28.495C104.249 28.5883 104.129 28.6483 103.982 28.675C103.835 28.6883 103.675 28.6483 103.502 28.555C103.115 28.2883 102.715 28.1017 102.302 27.995C101.902 27.875 101.502 27.815 101.102 27.815C100.382 27.815 99.8353 27.955 99.462 28.235C99.102 28.515 98.922 28.8817 98.922 29.335C98.922 29.6817 99.0286 29.9683 99.242 30.195C99.4686 30.4217 99.822 30.5883 100.302 30.695L102.162 31.075C103.029 31.2617 103.682 31.5617 104.122 31.975C104.562 32.375 104.782 32.9217 104.782 33.615C104.782 34.5217 104.422 35.2417 103.702 35.775C102.995 36.295 102.042 36.555 100.842 36.555ZM111.65 36.555C110.597 36.555 109.69 36.355 108.93 35.955C108.183 35.5417 107.603 34.9617 107.19 34.215C106.777 33.455 106.57 32.5617 106.57 31.535C106.57 30.5217 106.77 29.635 107.17 28.875C107.583 28.115 108.143 27.5217 108.85 27.095C109.57 26.6683 110.39 26.455 111.31 26.455C111.963 26.455 112.55 26.5683 113.07 26.795C113.603 27.0083 114.057 27.3217 114.43 27.735C114.803 28.1483 115.083 28.655 115.27 29.255C115.47 29.8417 115.57 30.5083 115.57 31.255C115.57 31.4683 115.503 31.635 115.37 31.755C115.25 31.8617 115.07 31.915 114.83 31.915H107.99V30.755H114.37L114.03 31.035C114.03 30.3417 113.923 29.755 113.71 29.275C113.51 28.7817 113.21 28.4083 112.81 28.155C112.423 27.9017 111.937 27.775 111.35 27.775C110.71 27.775 110.163 27.9283 109.71 28.235C109.257 28.5283 108.91 28.9483 108.67 29.495C108.43 30.0283 108.31 30.6483 108.31 31.355V31.475C108.31 32.675 108.597 33.5817 109.17 34.195C109.743 34.8083 110.57 35.115 111.65 35.115C112.077 35.115 112.51 35.0617 112.95 34.955C113.403 34.8483 113.837 34.655 114.25 34.375C114.45 34.255 114.63 34.2017 114.79 34.215C114.963 34.215 115.103 34.2683 115.21 34.375C115.317 34.4683 115.383 34.5883 115.41 34.735C115.437 34.8683 115.417 35.015 115.35 35.175C115.283 35.335 115.157 35.475 114.97 35.595C114.53 35.9017 114.003 36.1417 113.39 36.315C112.79 36.475 112.21 36.555 111.65 36.555ZM120.894 36.555C119.894 36.555 119.134 36.2617 118.614 35.675C118.094 35.075 117.834 34.215 117.834 33.095V23.055C117.834 22.7483 117.914 22.5217 118.074 22.375C118.234 22.215 118.454 22.135 118.734 22.135C119.027 22.135 119.254 22.215 119.414 22.375C119.574 22.5217 119.654 22.7483 119.654 23.055V32.955C119.654 33.6483 119.794 34.1683 120.074 34.515C120.367 34.8483 120.78 35.015 121.314 35.015C121.434 35.015 121.54 35.015 121.634 35.015C121.727 35.0017 121.82 34.9883 121.914 34.975C122.06 34.9617 122.167 35.0017 122.234 35.095C122.3 35.1883 122.334 35.375 122.334 35.655C122.334 35.9083 122.274 36.1083 122.154 36.255C122.047 36.3883 121.867 36.475 121.614 36.515C121.494 36.5283 121.374 36.535 121.254 36.535C121.134 36.5483 121.014 36.555 120.894 36.555ZM126.909 36.555C125.909 36.555 125.149 36.2617 124.629 35.675C124.109 35.075 123.849 34.215 123.849 33.095V23.055C123.849 22.7483 123.929 22.5217 124.089 22.375C124.249 22.215 124.469 22.135 124.749 22.135C125.042 22.135 125.269 22.215 125.429 22.375C125.589 22.5217 125.669 22.7483 125.669 23.055V32.955C125.669 33.6483 125.809 34.1683 126.089 34.515C126.382 34.8483 126.796 35.015 127.329 35.015C127.449 35.015 127.556 35.015 127.649 35.015C127.742 35.0017 127.836 34.9883 127.929 34.975C128.076 34.9617 128.182 35.0017 128.249 35.095C128.316 35.1883 128.349 35.375 128.349 35.655C128.349 35.9083 128.289 36.1083 128.169 36.255C128.062 36.3883 127.882 36.475 127.629 36.515C127.509 36.5283 127.389 36.535 127.269 36.535C127.149 36.5483 127.029 36.555 126.909 36.555ZM133.907 36.555C132.947 36.555 132.114 36.3483 131.407 35.935C130.7 35.5217 130.154 34.935 129.767 34.175C129.38 33.415 129.187 32.5217 129.187 31.495C129.187 30.7217 129.294 30.0283 129.507 29.415C129.734 28.7883 130.054 28.255 130.467 27.815C130.88 27.375 131.374 27.0417 131.947 26.815C132.534 26.575 133.187 26.455 133.907 26.455C134.867 26.455 135.7 26.6617 136.407 27.075C137.114 27.4883 137.66 28.075 138.047 28.835C138.434 29.5817 138.627 30.4683 138.627 31.495C138.627 32.2683 138.514 32.9683 138.287 33.595C138.074 34.2217 137.76 34.755 137.347 35.195C136.934 35.635 136.434 35.975 135.847 36.215C135.274 36.4417 134.627 36.555 133.907 36.555ZM133.907 35.115C134.494 35.115 135 34.975 135.427 34.695C135.867 34.415 136.2 34.0083 136.427 33.475C136.667 32.9417 136.787 32.2817 136.787 31.495C136.787 30.3217 136.527 29.4283 136.007 28.815C135.487 28.2017 134.787 27.895 133.907 27.895C133.334 27.895 132.827 28.035 132.387 28.315C131.96 28.5817 131.627 28.9817 131.387 29.515C131.147 30.0483 131.027 30.7083 131.027 31.495C131.027 32.6683 131.287 33.5683 131.807 34.195C132.34 34.8083 133.04 35.115 133.907 35.115ZM141.899 36.515C141.592 36.515 141.359 36.435 141.199 36.275C141.039 36.115 140.959 35.8817 140.959 35.575V27.415C140.959 27.1083 141.039 26.8817 141.199 26.735C141.359 26.575 141.579 26.495 141.859 26.495C142.139 26.495 142.352 26.575 142.499 26.735C142.659 26.8817 142.739 27.1083 142.739 27.415V28.955H142.539C142.752 28.155 143.152 27.5483 143.739 27.135C144.325 26.7217 145.065 26.4883 145.959 26.435C146.172 26.4217 146.345 26.475 146.479 26.595C146.612 26.7017 146.685 26.8883 146.699 27.155C146.712 27.4083 146.652 27.615 146.519 27.775C146.385 27.9217 146.179 28.0083 145.899 28.035L145.539 28.055C144.659 28.1483 143.979 28.435 143.499 28.915C143.032 29.395 142.799 30.055 142.799 30.895V35.575C142.799 35.8817 142.719 36.115 142.559 36.275C142.412 36.435 142.192 36.515 141.899 36.515Z" fill="#173E88"/>
<defs>
<filter id="filter0_d_1202_10410" x="4" y="0" width="191.642" height="198.611" filterUnits="userSpaceOnUse" color-interpolation-filters="sRGB">
<feFlood flood-opacity="0" result="BackgroundImageFix"/>
<feColorMatrix in="SourceAlpha" type="matrix" values="0 0 0 0 0 0 0 0 0 0 0 0 0 0 0 0 0 0 127 0" result="hardAlpha"/>
<feOffset dy="4"/>
<feGaussianBlur stdDeviation="2"/>
<feComposite in2="hardAlpha" operator="out"/>
<feColorMatrix type="matrix" values="0 0 0 0 0 0 0 0 0 0 0 0 0 0 0 0 0 0 0.25 0"/>
<feBlend mode="normal" in2="BackgroundImageFix" result="effect1_dropShadow_1202_10410"/>
<feBlend mode="normal" in="SourceGraphic" in2="effect1_dropShadow_1202_10410" result="shape"/>
</filter>
<filter id="filter1_bd_1202_10410" x="0" y="-4" width="199.642" height="217.611" filterUnits="userSpaceOnUse" color-interpolation-filters="sRGB">
<feFlood flood-opacity="0" result="BackgroundImageFix"/>
<feGaussianBlur in="BackgroundImageFix" stdDeviation="2"/>
<feComposite in2="SourceAlpha" operator="in" result="effect1_backgroundBlur_1202_10410"/>
<feColorMatrix in="SourceAlpha" type="matrix" values="0 0 0 0 0 0 0 0 0 0 0 0 0 0 0 0 0 0 127 0" result="hardAlpha"/>
<feMorphology radius="2" operator="erode" in="SourceAlpha" result="effect2_dropShadow_1202_10410"/>
<feOffset dy="15"/>
<feGaussianBlur stdDeviation="5"/>
<feComposite in2="hardAlpha" operator="out"/>
<feColorMatrix type="matrix" values="0 0 0 0 0 0 0 0 0 0 0 0 0 0 0 0 0 0 0.25 0"/>
<feBlend mode="normal" in2="effect1_backgroundBlur_1202_10410" result="effect2_dropShadow_1202_10410"/>
<feBlend mode="normal" in="SourceGraphic" in2="effect2_dropShadow_1202_10410" result="shape"/>
</filter>
<linearGradient id="paint0_linear_1202_10410" x1="191.283" y1="376.723" x2="375.283" y2="195.223" gradientUnits="userSpaceOnUse">
<stop stop-color="#3D75DF" stop-opacity="0.2"/>
<stop offset="1" stop-color="#3D75DF"/>
</linearGradient>
</defs>
</svg>
